<svg width="19" height="19" viewBox="0 0 19 19" fill="none" xmlns="http://www.w3.org/2000/svg">
<path d="M2.26758 2.55815C2.26758 2.25744 2.38704 1.96904 2.59967 1.75641C2.81231 1.54377 3.1007 1.42432 3.40141 1.42432H8.60118C8.90186 1.42438 9.19021 1.54388 9.4028 1.75653L17.3396 9.69337C17.5522 9.906 17.6716 10.1943 17.6716 10.495C17.6716 10.7956 17.5522 11.084 17.3396 11.2966L12.1399 16.4964C11.9272 16.7089 11.6389 16.8283 11.3383 16.8283C11.0376 16.8283 10.7493 16.7089 10.5366 16.4964L2.59979 8.55954C2.38714 8.34695 2.26764 8.0586 2.26758 7.75791V2.55815ZM6.236 7.09349C6.68707 7.09349 7.11966 6.9143 7.43861 6.59535C7.75756 6.2764 7.93675 5.8438 7.93675 5.39274C7.93675 4.94167 7.75756 4.50908 7.43861 4.19012C7.11966 3.87117 6.68707 3.69198 6.236 3.69198C5.78493 3.69198 5.35234 3.87117 5.03338 4.19012C4.71443 4.50908 4.53525 4.94167 4.53525 5.39274C4.53525 5.8438 4.71443 6.2764 5.03338 6.59535C5.35234 6.9143 5.78493 7.09349 6.236 7.09349V7.09349Z" fill="url(#paint0_linear_2079_62261)"/>
<path d="M2.26758 2.55815C2.26758 2.25744 2.38704 1.96904 2.59967 1.75641C2.81231 1.54377 3.1007 1.42432 3.40141 1.42432H8.60118C8.90186 1.42438 9.19021 1.54388 9.4028 1.75653L17.3396 9.69337C17.5522 9.906 17.6716 10.1943 17.6716 10.495C17.6716 10.7956 17.5522 11.084 17.3396 11.2966L12.1399 16.4964C11.9272 16.7089 11.6389 16.8283 11.3383 16.8283C11.0376 16.8283 10.7493 16.7089 10.5366 16.4964L2.59979 8.55954C2.38714 8.34695 2.26764 8.0586 2.26758 7.75791V2.55815ZM6.236 7.09349C6.68707 7.09349 7.11966 6.9143 7.43861 6.59535C7.75756 6.2764 7.93675 5.8438 7.93675 5.39274C7.93675 4.94167 7.75756 4.50908 7.43861 4.19012C7.11966 3.87117 6.68707 3.69198 6.236 3.69198C5.78493 3.69198 5.35234 3.87117 5.03338 4.19012C4.71443 4.50908 4.53525 4.94167 4.53525 5.39274C4.53525 5.8438 4.71443 6.2764 5.03338 6.59535C5.35234 6.9143 5.78493 7.09349 6.236 7.09349V7.09349Z" fill="url(#paint1_diamond_2079_62261)" fill-opacity="0.2"/>
<path d="M2.26758 2.55815C2.26758 2.25744 2.38704 1.96904 2.59967 1.75641C2.81231 1.54377 3.1007 1.42432 3.40141 1.42432H8.60118C8.90186 1.42438 9.19021 1.54388 9.4028 1.75653L17.3396 9.69337C17.5522 9.906 17.6716 10.1943 17.6716 10.495C17.6716 10.7956 17.5522 11.084 17.3396 11.2966L12.1399 16.4964C11.9272 16.7089 11.6389 16.8283 11.3383 16.8283C11.0376 16.8283 10.7493 16.7089 10.5366 16.4964L2.59979 8.55954C2.38714 8.34695 2.26764 8.0586 2.26758 7.75791V2.55815ZM6.236 7.09349C6.68707 7.09349 7.11966 6.9143 7.43861 6.59535C7.75756 6.2764 7.93675 5.8438 7.93675 5.39274C7.93675 4.94167 7.75756 4.50908 7.43861 4.19012C7.11966 3.87117 6.68707 3.69198 6.236 3.69198C5.78493 3.69198 5.35234 3.87117 5.03338 4.19012C4.71443 4.50908 4.53525 4.94167 4.53525 5.39274C4.53525 5.8438 4.71443 6.2764 5.03338 6.59535C5.35234 6.9143 5.78493 7.09349 6.236 7.09349V7.09349Z" stroke="url(#paint2_linear_2079_62261)"/>
<path d="M2.26758 2.55815C2.26758 2.25744 2.38704 1.96904 2.59967 1.75641C2.81231 1.54377 3.1007 1.42432 3.40141 1.42432H8.60118C8.90186 1.42438 9.19021 1.54388 9.4028 1.75653L17.3396 9.69337C17.5522 9.906 17.6716 10.1943 17.6716 10.495C17.6716 10.7956 17.5522 11.084 17.3396 11.2966L12.1399 16.4964C11.9272 16.7089 11.6389 16.8283 11.3383 16.8283C11.0376 16.8283 10.7493 16.7089 10.5366 16.4964L2.59979 8.55954C2.38714 8.34695 2.26764 8.0586 2.26758 7.75791V2.55815ZM6.236 7.09349C6.68707 7.09349 7.11966 6.9143 7.43861 6.59535C7.75756 6.2764 7.93675 5.8438 7.93675 5.39274C7.93675 4.94167 7.75756 4.50908 7.43861 4.19012C7.11966 3.87117 6.68707 3.69198 6.236 3.69198C5.78493 3.69198 5.35234 3.87117 5.03338 4.19012C4.71443 4.50908 4.53525 4.94167 4.53525 5.39274C4.53525 5.8438 4.71443 6.2764 5.03338 6.59535C5.35234 6.9143 5.78493 7.09349 6.236 7.09349V7.09349Z" stroke="url(#paint3_diamond_2079_62261)" stroke-opacity="0.2"/>
<path d="M1.46605 9.12641C1.2534 8.91382 1.1339 8.62547 1.13383 8.32479V2.55811C0.833123 2.55811 0.544727 2.67756 0.332092 2.8902C0.119457 3.10283 0 3.39123 0 3.69194L0 8.8917C6.42174e-05 9.19239 0.119564 9.48074 0.332213 9.69332L8.26905 17.6302C8.48168 17.8427 8.77002 17.9621 9.07067 17.9621C9.37133 17.9621 9.65967 17.8427 9.87229 17.6302L9.92105 17.5814L1.46605 9.12641V9.12641Z" fill="black"/>
<defs>
<linearGradient id="paint0_linear_2079_62261" x1="-0.335172" y1="-4.7373" x2="11.8041" y2="-3.64981" gradientUnits="userSpaceOnUse">
<stop stop-color="#ECDDFF"/>
<stop offset="0.510417" stop-color="#EEE6FF"/>
<stop offset="0.927083" stop-color="#E9C6FF"/>
<stop offset="0.989583" stop-color="#E9C5FF"/>
</linearGradient>
<radialGradient id="paint1_diamond_2079_62261" cx="0" cy="0" r="1" gradientUnits="userSpaceOnUse" gradientTransform="translate(9.96959 9.12633) rotate(90) scale(7.70201)">
<stop offset="0.552083"/>
<stop offset="0.604167" stop-opacity="0"/>
</radialGradient>
<linearGradient id="paint2_linear_2079_62261" x1="-0.335172" y1="-4.7373" x2="11.8041" y2="-3.64981" gradientUnits="userSpaceOnUse">
<stop stop-color="#ECDDFF"/>
<stop offset="0.510417" stop-color="#EEE6FF"/>
<stop offset="0.927083" stop-color="#E9C6FF"/>
<stop offset="0.989583" stop-color="#E9C5FF"/>
</linearGradient>
<radialGradient id="paint3_diamond_2079_62261" cx="0" cy="0" r="1" gradientUnits="userSpaceOnUse" gradientTransform="translate(9.96959 9.12633) rotate(90) scale(7.70201)">
<stop offset="0.552083"/>
<stop offset="0.604167" stop-opacity="0"/>
</radialGradient>
</defs>
</svg>
