<svg width="20" height="20" viewBox="0 0 20 20" fill="none" xmlns="http://www.w3.org/2000/svg">
<path d="M2.55664 2.70253C2.55664 2.38955 2.68097 2.0894 2.90227 1.86809C3.12358 1.64679 3.42373 1.52246 3.73671 1.52246H9.14848C9.46143 1.52253 9.76154 1.6469 9.98279 1.86822L18.2432 10.1287C18.4645 10.35 18.5888 10.6501 18.5888 10.963C18.5888 11.2759 18.4645 11.576 18.2432 11.7973L12.8315 17.2091C12.6102 17.4303 12.3101 17.5546 11.9972 17.5546C11.6842 17.5546 11.3841 17.4303 11.1629 17.2091L2.9024 8.94861C2.68108 8.72736 2.55671 8.42725 2.55664 8.1143V2.70253ZM6.68687 7.42279C7.15633 7.42279 7.60656 7.23629 7.93852 6.90434C8.27047 6.57238 8.45697 6.12215 8.45697 5.65269C8.45697 5.18323 8.27047 4.733 7.93852 4.40104C7.60656 4.06908 7.15633 3.88259 6.68687 3.88259C6.21741 3.88259 5.76718 4.06908 5.43522 4.40104C5.10326 4.733 4.91677 5.18323 4.91677 5.65269C4.91677 6.12215 5.10326 6.57238 5.43522 6.90434C5.76718 7.23629 6.21741 7.42279 6.68687 7.42279V7.42279Z" fill="url(#paint0_linear_2038_60206)"/>
<path d="M2.55664 2.70253C2.55664 2.38955 2.68097 2.0894 2.90227 1.86809C3.12358 1.64679 3.42373 1.52246 3.73671 1.52246H9.14848C9.46143 1.52253 9.76154 1.6469 9.98279 1.86822L18.2432 10.1287C18.4645 10.35 18.5888 10.6501 18.5888 10.963C18.5888 11.2759 18.4645 11.576 18.2432 11.7973L12.8315 17.2091C12.6102 17.4303 12.3101 17.5546 11.9972 17.5546C11.6842 17.5546 11.3841 17.4303 11.1629 17.2091L2.9024 8.94861C2.68108 8.72736 2.55671 8.42725 2.55664 8.1143V2.70253ZM6.68687 7.42279C7.15633 7.42279 7.60656 7.23629 7.93852 6.90434C8.27047 6.57238 8.45697 6.12215 8.45697 5.65269C8.45697 5.18323 8.27047 4.733 7.93852 4.40104C7.60656 4.06908 7.15633 3.88259 6.68687 3.88259C6.21741 3.88259 5.76718 4.06908 5.43522 4.40104C5.10326 4.733 4.91677 5.18323 4.91677 5.65269C4.91677 6.12215 5.10326 6.57238 5.43522 6.90434C5.76718 7.23629 6.21741 7.42279 6.68687 7.42279V7.42279Z" fill="url(#paint1_diamond_2038_60206)" fill-opacity="0.2"/>
<path d="M2.55664 2.70253C2.55664 2.38955 2.68097 2.0894 2.90227 1.86809C3.12358 1.64679 3.42373 1.52246 3.73671 1.52246H9.14848C9.46143 1.52253 9.76154 1.6469 9.98279 1.86822L18.2432 10.1287C18.4645 10.35 18.5888 10.6501 18.5888 10.963C18.5888 11.2759 18.4645 11.576 18.2432 11.7973L12.8315 17.2091C12.6102 17.4303 12.3101 17.5546 11.9972 17.5546C11.6842 17.5546 11.3841 17.4303 11.1629 17.2091L2.9024 8.94861C2.68108 8.72736 2.55671 8.42725 2.55664 8.1143V2.70253ZM6.68687 7.42279C7.15633 7.42279 7.60656 7.23629 7.93852 6.90434C8.27047 6.57238 8.45697 6.12215 8.45697 5.65269C8.45697 5.18323 8.27047 4.733 7.93852 4.40104C7.60656 4.06908 7.15633 3.88259 6.68687 3.88259C6.21741 3.88259 5.76718 4.06908 5.43522 4.40104C5.10326 4.733 4.91677 5.18323 4.91677 5.65269C4.91677 6.12215 5.10326 6.57238 5.43522 6.90434C5.76718 7.23629 6.21741 7.42279 6.68687 7.42279V7.42279Z" stroke="url(#paint2_linear_2038_60206)"/>
<path d="M2.55664 2.70253C2.55664 2.38955 2.68097 2.0894 2.90227 1.86809C3.12358 1.64679 3.42373 1.52246 3.73671 1.52246H9.14848C9.46143 1.52253 9.76154 1.6469 9.98279 1.86822L18.2432 10.1287C18.4645 10.35 18.5888 10.6501 18.5888 10.963C18.5888 11.2759 18.4645 11.576 18.2432 11.7973L12.8315 17.2091C12.6102 17.4303 12.3101 17.5546 11.9972 17.5546C11.6842 17.5546 11.3841 17.4303 11.1629 17.2091L2.9024 8.94861C2.68108 8.72736 2.55671 8.42725 2.55664 8.1143V2.70253ZM6.68687 7.42279C7.15633 7.42279 7.60656 7.23629 7.93852 6.90434C8.27047 6.57238 8.45697 6.12215 8.45697 5.65269C8.45697 5.18323 8.27047 4.733 7.93852 4.40104C7.60656 4.06908 7.15633 3.88259 6.68687 3.88259C6.21741 3.88259 5.76718 4.06908 5.43522 4.40104C5.10326 4.733 4.91677 5.18323 4.91677 5.65269C4.91677 6.12215 5.10326 6.57238 5.43522 6.90434C5.76718 7.23629 6.21741 7.42279 6.68687 7.42279V7.42279Z" stroke="url(#paint3_diamond_2038_60206)" stroke-opacity="0.2"/>
<path d="M1.72309 9.53851C1.50177 9.31726 1.3774 9.01715 1.37733 8.7042V2.70239C1.06436 2.70239 0.764204 2.82672 0.542899 3.04803C0.321594 3.26933 0.197266 3.56948 0.197266 3.88246L0.197266 9.29424C0.197332 9.60718 0.321704 9.90729 0.543025 10.1285L8.80348 18.389C9.02477 18.6102 9.32487 18.7345 9.63778 18.7345C9.95069 18.7345 10.2508 18.6102 10.4721 18.389L10.5228 18.3383L1.72309 9.53851V9.53851Z" fill="black"/>
<defs>
<linearGradient id="paint0_linear_2038_60206" x1="-0.152233" y1="-4.89039" x2="12.482" y2="-3.75856" gradientUnits="userSpaceOnUse">
<stop stop-color="#994DFF"/>
<stop offset="0.510417" stop-color="#702EFF"/>
<stop offset="0.927083" stop-color="#B02EFF"/>
</linearGradient>
<radialGradient id="paint1_diamond_2038_60206" cx="0" cy="0" r="1" gradientUnits="userSpaceOnUse" gradientTransform="translate(10.5727 9.53852) rotate(90) scale(8.01606)">
<stop offset="0.552083"/>
<stop offset="0.604167" stop-opacity="0"/>
</radialGradient>
<linearGradient id="paint2_linear_2038_60206" x1="-0.152233" y1="-4.89039" x2="12.482" y2="-3.75856" gradientUnits="userSpaceOnUse">
<stop stop-color="#994DFF"/>
<stop offset="0.510417" stop-color="#702EFF"/>
<stop offset="0.927083" stop-color="#B02EFF"/>
</linearGradient>
<radialGradient id="paint3_diamond_2038_60206" cx="0" cy="0" r="1" gradientUnits="userSpaceOnUse" gradientTransform="translate(10.5727 9.53852) rotate(90) scale(8.01606)">
<stop offset="0.552083"/>
<stop offset="0.604167" stop-opacity="0"/>
</radialGradient>
</defs>
</svg>
