<svg width="93" height="40" viewBox="0 0 93 40" fill="none" xmlns="http://www.w3.org/2000/svg">
<path d="M59.1163 9.32422H33.8836C33.3468 9.32422 32.9131 9.75791 32.9131 10.2947V29.7045C32.9131 30.2413 33.3468 30.675 33.8836 30.675H59.1163C59.6531 30.675 60.0868 30.2413 60.0868 29.7045V10.2947C60.0868 9.75791 59.6531 9.32422 59.1163 9.32422ZM57.9032 12.6845V28.4914H35.0967V12.6845L34.2596 12.0325L35.4515 10.5009L36.7496 11.5109H56.2534L57.5514 10.5009L58.7433 12.0325L57.9032 12.6845ZM56.2534 11.5078L46.4999 19.0898L36.7465 11.5078L35.4485 10.4979L34.2566 12.0295L35.0937 12.6815L45.4536 20.7366C45.7516 20.968 46.1181 21.0937 46.4954 21.0937C46.8727 21.0937 47.2392 20.968 47.5372 20.7366L57.9032 12.6845L58.7402 12.0325L57.5484 10.5009L56.2534 11.5078Z" fill="url(#paint0_linear_2129_62342)"/>
<path d="M59.1163 9.32422H33.8836C33.3468 9.32422 32.9131 9.75791 32.9131 10.2947V29.7045C32.9131 30.2413 33.3468 30.675 33.8836 30.675H59.1163C59.6531 30.675 60.0868 30.2413 60.0868 29.7045V10.2947C60.0868 9.75791 59.6531 9.32422 59.1163 9.32422ZM57.9032 12.6845V28.4914H35.0967V12.6845L34.2596 12.0325L35.4515 10.5009L36.7496 11.5109H56.2534L57.5514 10.5009L58.7433 12.0325L57.9032 12.6845ZM56.2534 11.5078L46.4999 19.0898L36.7465 11.5078L35.4485 10.4979L34.2566 12.0295L35.0937 12.6815L45.4536 20.7366C45.7516 20.968 46.1181 21.0937 46.4954 21.0937C46.8727 21.0937 47.2392 20.968 47.5372 20.7366L57.9032 12.6845L58.7402 12.0325L57.5484 10.5009L56.2534 11.5078Z" fill="url(#paint1_diamond_2129_62342)" fill-opacity="0.2"/>
<path d="M59.1163 9.32422H33.8836C33.3468 9.32422 32.9131 9.75791 32.9131 10.2947V29.7045C32.9131 30.2413 33.3468 30.675 33.8836 30.675H59.1163C59.6531 30.675 60.0868 30.2413 60.0868 29.7045V10.2947C60.0868 9.75791 59.6531 9.32422 59.1163 9.32422ZM57.9032 12.6845V28.4914H35.0967V12.6845L34.2596 12.0325L35.4515 10.5009L36.7496 11.5109H56.2534L57.5514 10.5009L58.7433 12.0325L57.9032 12.6845ZM56.2534 11.5078L46.4999 19.0898L36.7465 11.5078L35.4485 10.4979L34.2566 12.0295L35.0937 12.6815L45.4536 20.7366C45.7516 20.968 46.1181 21.0937 46.4954 21.0937C46.8727 21.0937 47.2392 20.968 47.5372 20.7366L57.9032 12.6845L58.7402 12.0325L57.5484 10.5009L56.2534 11.5078Z" stroke="url(#paint2_linear_2129_62342)"/>
<path d="M59.1163 9.32422H33.8836C33.3468 9.32422 32.9131 9.75791 32.9131 10.2947V29.7045C32.9131 30.2413 33.3468 30.675 33.8836 30.675H59.1163C59.6531 30.675 60.0868 30.2413 60.0868 29.7045V10.2947C60.0868 9.75791 59.6531 9.32422 59.1163 9.32422ZM57.9032 12.6845V28.4914H35.0967V12.6845L34.2596 12.0325L35.4515 10.5009L36.7496 11.5109H56.2534L57.5514 10.5009L58.7433 12.0325L57.9032 12.6845ZM56.2534 11.5078L46.4999 19.0898L36.7465 11.5078L35.4485 10.4979L34.2566 12.0295L35.0937 12.6815L45.4536 20.7366C45.7516 20.968 46.1181 21.0937 46.4954 21.0937C46.8727 21.0937 47.2392 20.968 47.5372 20.7366L57.9032 12.6845L58.7402 12.0325L57.5484 10.5009L56.2534 11.5078Z" stroke="url(#paint3_diamond_2129_62342)" stroke-opacity="0.2"/>
<rect x="0.636986" y="0.636986" width="91.726" height="38.726" rx="14.363" stroke="url(#paint4_linear_2129_62342)" stroke-width="1.27397"/>
<rect x="0.636986" y="0.636986" width="91.726" height="38.726" rx="14.363" stroke="url(#paint5_diamond_2129_62342)" stroke-opacity="0.2" stroke-width="1.27397"/>
<defs>
<linearGradient id="paint0_linear_2129_62342" x1="28.3217" y1="0.783907" x2="49.631" y2="3.21351" gradientUnits="userSpaceOnUse">
<stop stop-color="#ECDDFF"/>
<stop offset="0.510417" stop-color="#EEE6FF"/>
<stop offset="0.927083" stop-color="#E9C6FF"/>
<stop offset="0.989583" stop-color="#E9C5FF"/>
</linearGradient>
<radialGradient id="paint1_diamond_2129_62342" cx="0" cy="0" r="1" gradientUnits="userSpaceOnUse" gradientTransform="translate(46.4999 19.9996) rotate(90) scale(10.6754 13.5869)">
<stop offset="0.552083"/>
<stop offset="0.604167" stop-opacity="0"/>
</radialGradient>
<linearGradient id="paint2_linear_2129_62342" x1="28.3217" y1="0.783907" x2="49.631" y2="3.21351" gradientUnits="userSpaceOnUse">
<stop stop-color="#ECDDFF"/>
<stop offset="0.510417" stop-color="#EEE6FF"/>
<stop offset="0.927083" stop-color="#E9C6FF"/>
<stop offset="0.989583" stop-color="#E9C5FF"/>
</linearGradient>
<radialGradient id="paint3_diamond_2129_62342" cx="0" cy="0" r="1" gradientUnits="userSpaceOnUse" gradientTransform="translate(46.4999 19.9996) rotate(90) scale(10.6754 13.5869)">
<stop offset="0.552083"/>
<stop offset="0.604167" stop-opacity="0"/>
</radialGradient>
<linearGradient id="paint4_linear_2129_62342" x1="-15.7138" y1="-16" x2="55.0922" y2="-1.25233" gradientUnits="userSpaceOnUse">
<stop stop-color="#ECDDFF"/>
<stop offset="0.510417" stop-color="#EEE6FF"/>
<stop offset="0.927083" stop-color="#E9C6FF"/>
<stop offset="0.989583" stop-color="#E9C5FF"/>
</linearGradient>
<radialGradient id="paint5_diamond_2129_62342" cx="0" cy="0" r="1" gradientUnits="userSpaceOnUse" gradientTransform="translate(46.5 20) rotate(90) scale(20 46.5)">
<stop offset="0.552083"/>
<stop offset="0.604167" stop-opacity="0"/>
</radialGradient>
</defs>
</svg>
