<svg width="93" height="40" viewBox="0 0 93 40" fill="none" xmlns="http://www.w3.org/2000/svg">
<path d="M56.6803 7.86816H36.3182C35.2416 7.86816 34.3682 8.7416 34.3682 9.81824V30.1803C34.3682 31.257 35.2416 32.1304 36.3182 32.1304H56.6803C57.757 32.1304 58.6304 31.257 58.6304 30.1803V9.81824C58.6304 8.7416 57.757 7.86816 56.6803 7.86816ZM56.6803 30.1894C43.0995 30.1864 36.3091 30.1834 36.3091 30.1803C36.3122 16.5995 36.3152 9.80914 36.3182 9.80914C49.899 9.81218 56.6894 9.81521 56.6894 9.81824C56.6864 23.399 56.6834 30.1894 56.6803 30.1894ZM37.965 16.9635H41.565V28.5426H37.965V16.9635ZM39.7665 15.3804C40.9159 15.3804 41.8531 14.4463 41.8531 13.2938C41.8531 13.0198 41.7991 12.7485 41.6942 12.4953C41.5894 12.2422 41.4357 12.0121 41.2419 11.8184C41.0482 11.6246 40.8182 11.4709 40.565 11.3661C40.3118 11.2612 40.0405 11.2073 39.7665 11.2073C39.4925 11.2073 39.2212 11.2612 38.968 11.3661C38.7149 11.4709 38.4849 11.6246 38.2911 11.8184C38.0973 12.0121 37.9436 12.2422 37.8388 12.4953C37.7339 12.7485 37.68 13.0198 37.68 13.2938C37.6769 14.4463 38.611 15.3804 39.7665 15.3804ZM47.4182 22.8137C47.4182 21.3034 47.7063 19.8416 49.5776 19.8416C51.4215 19.8416 51.4488 21.5672 51.4488 22.9108V28.5426H55.0457V22.192C55.0457 19.0743 54.3724 16.6754 50.73 16.6754C48.9801 16.6754 47.8064 17.6367 47.3242 18.5466H47.2757V16.9635H43.8213V28.5426H47.4182V22.8137Z" fill="url(#paint0_linear_2129_62340)"/>
<path d="M56.6803 7.86816H36.3182C35.2416 7.86816 34.3682 8.7416 34.3682 9.81824V30.1803C34.3682 31.257 35.2416 32.1304 36.3182 32.1304H56.6803C57.757 32.1304 58.6304 31.257 58.6304 30.1803V9.81824C58.6304 8.7416 57.757 7.86816 56.6803 7.86816ZM56.6803 30.1894C43.0995 30.1864 36.3091 30.1834 36.3091 30.1803C36.3122 16.5995 36.3152 9.80914 36.3182 9.80914C49.899 9.81218 56.6894 9.81521 56.6894 9.81824C56.6864 23.399 56.6834 30.1894 56.6803 30.1894ZM37.965 16.9635H41.565V28.5426H37.965V16.9635ZM39.7665 15.3804C40.9159 15.3804 41.8531 14.4463 41.8531 13.2938C41.8531 13.0198 41.7991 12.7485 41.6942 12.4953C41.5894 12.2422 41.4357 12.0121 41.2419 11.8184C41.0482 11.6246 40.8182 11.4709 40.565 11.3661C40.3118 11.2612 40.0405 11.2073 39.7665 11.2073C39.4925 11.2073 39.2212 11.2612 38.968 11.3661C38.7149 11.4709 38.4849 11.6246 38.2911 11.8184C38.0973 12.0121 37.9436 12.2422 37.8388 12.4953C37.7339 12.7485 37.68 13.0198 37.68 13.2938C37.6769 14.4463 38.611 15.3804 39.7665 15.3804ZM47.4182 22.8137C47.4182 21.3034 47.7063 19.8416 49.5776 19.8416C51.4215 19.8416 51.4488 21.5672 51.4488 22.9108V28.5426H55.0457V22.192C55.0457 19.0743 54.3724 16.6754 50.73 16.6754C48.9801 16.6754 47.8064 17.6367 47.3242 18.5466H47.2757V16.9635H43.8213V28.5426H47.4182V22.8137Z" fill="url(#paint1_diamond_2129_62340)" fill-opacity="0.2"/>
<path d="M56.6803 7.86816H36.3182C35.2416 7.86816 34.3682 8.7416 34.3682 9.81824V30.1803C34.3682 31.257 35.2416 32.1304 36.3182 32.1304H56.6803C57.757 32.1304 58.6304 31.257 58.6304 30.1803V9.81824C58.6304 8.7416 57.757 7.86816 56.6803 7.86816ZM56.6803 30.1894C43.0995 30.1864 36.3091 30.1834 36.3091 30.1803C36.3122 16.5995 36.3152 9.80914 36.3182 9.80914C49.899 9.81218 56.6894 9.81521 56.6894 9.81824C56.6864 23.399 56.6834 30.1894 56.6803 30.1894ZM37.965 16.9635H41.565V28.5426H37.965V16.9635ZM39.7665 15.3804C40.9159 15.3804 41.8531 14.4463 41.8531 13.2938C41.8531 13.0198 41.7991 12.7485 41.6942 12.4953C41.5894 12.2422 41.4357 12.0121 41.2419 11.8184C41.0482 11.6246 40.8182 11.4709 40.565 11.3661C40.3118 11.2612 40.0405 11.2073 39.7665 11.2073C39.4925 11.2073 39.2212 11.2612 38.968 11.3661C38.7149 11.4709 38.4849 11.6246 38.2911 11.8184C38.0973 12.0121 37.9436 12.2422 37.8388 12.4953C37.7339 12.7485 37.68 13.0198 37.68 13.2938C37.6769 14.4463 38.611 15.3804 39.7665 15.3804ZM47.4182 22.8137C47.4182 21.3034 47.7063 19.8416 49.5776 19.8416C51.4215 19.8416 51.4488 21.5672 51.4488 22.9108V28.5426H55.0457V22.192C55.0457 19.0743 54.3724 16.6754 50.73 16.6754C48.9801 16.6754 47.8064 17.6367 47.3242 18.5466H47.2757V16.9635H43.8213V28.5426H47.4182V22.8137Z" stroke="url(#paint2_linear_2129_62340)"/>
<path d="M56.6803 7.86816H36.3182C35.2416 7.86816 34.3682 8.7416 34.3682 9.81824V30.1803C34.3682 31.257 35.2416 32.1304 36.3182 32.1304H56.6803C57.757 32.1304 58.6304 31.257 58.6304 30.1803V9.81824C58.6304 8.7416 57.757 7.86816 56.6803 7.86816ZM56.6803 30.1894C43.0995 30.1864 36.3091 30.1834 36.3091 30.1803C36.3122 16.5995 36.3152 9.80914 36.3182 9.80914C49.899 9.81218 56.6894 9.81521 56.6894 9.81824C56.6864 23.399 56.6834 30.1894 56.6803 30.1894ZM37.965 16.9635H41.565V28.5426H37.965V16.9635ZM39.7665 15.3804C40.9159 15.3804 41.8531 14.4463 41.8531 13.2938C41.8531 13.0198 41.7991 12.7485 41.6942 12.4953C41.5894 12.2422 41.4357 12.0121 41.2419 11.8184C41.0482 11.6246 40.8182 11.4709 40.565 11.3661C40.3118 11.2612 40.0405 11.2073 39.7665 11.2073C39.4925 11.2073 39.2212 11.2612 38.968 11.3661C38.7149 11.4709 38.4849 11.6246 38.2911 11.8184C38.0973 12.0121 37.9436 12.2422 37.8388 12.4953C37.7339 12.7485 37.68 13.0198 37.68 13.2938C37.6769 14.4463 38.611 15.3804 39.7665 15.3804ZM47.4182 22.8137C47.4182 21.3034 47.7063 19.8416 49.5776 19.8416C51.4215 19.8416 51.4488 21.5672 51.4488 22.9108V28.5426H55.0457V22.192C55.0457 19.0743 54.3724 16.6754 50.73 16.6754C48.9801 16.6754 47.8064 17.6367 47.3242 18.5466H47.2757V16.9635H43.8213V28.5426H47.4182V22.8137Z" stroke="url(#paint3_diamond_2129_62340)" stroke-opacity="0.2"/>
<rect x="0.636986" y="0.636986" width="91.726" height="38.726" rx="14.363" stroke="url(#paint4_linear_2129_62340)" stroke-width="1.27397"/>
<rect x="0.636986" y="0.636986" width="91.726" height="38.726" rx="14.363" stroke="url(#paint5_diamond_2129_62340)" stroke-opacity="0.2" stroke-width="1.27397"/>
<defs>
<linearGradient id="paint0_linear_2129_62340" x1="30.2687" y1="-1.83674" x2="49.3888" y2="-0.123882" gradientUnits="userSpaceOnUse">
<stop stop-color="#ECDDFF"/>
<stop offset="0.510417" stop-color="#EEE6FF"/>
<stop offset="0.927083" stop-color="#E9C6FF"/>
<stop offset="0.989583" stop-color="#E9C5FF"/>
</linearGradient>
<radialGradient id="paint1_diamond_2129_62340" cx="0" cy="0" r="1" gradientUnits="userSpaceOnUse" gradientTransform="translate(46.4993 19.9993) rotate(90) scale(12.1311)">
<stop offset="0.552083"/>
<stop offset="0.604167" stop-opacity="0"/>
</radialGradient>
<linearGradient id="paint2_linear_2129_62340" x1="30.2687" y1="-1.83674" x2="49.3888" y2="-0.123882" gradientUnits="userSpaceOnUse">
<stop stop-color="#ECDDFF"/>
<stop offset="0.510417" stop-color="#EEE6FF"/>
<stop offset="0.927083" stop-color="#E9C6FF"/>
<stop offset="0.989583" stop-color="#E9C5FF"/>
</linearGradient>
<radialGradient id="paint3_diamond_2129_62340" cx="0" cy="0" r="1" gradientUnits="userSpaceOnUse" gradientTransform="translate(46.4993 19.9993) rotate(90) scale(12.1311)">
<stop offset="0.552083"/>
<stop offset="0.604167" stop-opacity="0"/>
</radialGradient>
<linearGradient id="paint4_linear_2129_62340" x1="-15.7138" y1="-16" x2="55.0922" y2="-1.25233" gradientUnits="userSpaceOnUse">
<stop stop-color="#ECDDFF"/>
<stop offset="0.510417" stop-color="#EEE6FF"/>
<stop offset="0.927083" stop-color="#E9C6FF"/>
<stop offset="0.989583" stop-color="#E9C5FF"/>
</linearGradient>
<radialGradient id="paint5_diamond_2129_62340" cx="0" cy="0" r="1" gradientUnits="userSpaceOnUse" gradientTransform="translate(46.5 20) rotate(90) scale(20 46.5)">
<stop offset="0.552083"/>
<stop offset="0.604167" stop-opacity="0"/>
</radialGradient>
</defs>
</svg>
