<svg width="19" height="19" viewBox="0 0 19 19" fill="none" xmlns="http://www.w3.org/2000/svg">
<path d="M0 0.290527H18.1413V18.4319H0V0.290527Z" fill="url(#paint0_diamond_2079_62264)" fill-opacity="0.2"/>
<path d="M1.91248 15.1437L2.92537 15.567V8.74129L1.08856 13.1708C0.778643 13.9418 1.14903 14.8262 1.91248 15.1437V15.1437ZM16.6523 12.3469L12.9031 3.29888C12.789 3.02847 12.5992 2.79682 12.3564 2.63186C12.1137 2.46689 11.8284 2.37566 11.5349 2.36914C11.3384 2.36914 11.1343 2.39938 10.9378 2.48252L5.36689 4.78799C4.99911 4.94167 4.70695 5.23444 4.55404 5.60255C4.40114 5.97066 4.39987 6.38427 4.55053 6.7533L8.29974 15.8013C8.45326 16.1692 8.74603 16.4615 9.11419 16.6144C9.48235 16.7674 9.89604 16.7685 10.2651 16.6177L15.8284 14.3122C16.1982 14.1608 16.4927 13.8687 16.6472 13.5001C16.8017 13.1316 16.8036 12.7168 16.6523 12.3469V12.3469ZM5.95649 6.90448C5.54075 6.90448 5.2006 6.56433 5.2006 6.14859C5.2006 5.73285 5.54075 5.3927 5.95649 5.3927C6.37222 5.3927 6.71237 5.73285 6.71237 6.14859C6.71237 6.56433 6.37222 6.90448 5.95649 6.90448V6.90448ZM4.44471 15.2193C4.44471 16.0507 5.12501 16.731 5.95649 16.731H7.05252L4.44471 10.4269V15.2193Z" fill="url(#paint1_linear_2079_62264)"/>
<path d="M1.91248 15.1437L2.92537 15.567V8.74129L1.08856 13.1708C0.778643 13.9418 1.14903 14.8262 1.91248 15.1437V15.1437ZM16.6523 12.3469L12.9031 3.29888C12.789 3.02847 12.5992 2.79682 12.3564 2.63186C12.1137 2.46689 11.8284 2.37566 11.5349 2.36914C11.3384 2.36914 11.1343 2.39938 10.9378 2.48252L5.36689 4.78799C4.99911 4.94167 4.70695 5.23444 4.55404 5.60255C4.40114 5.97066 4.39987 6.38427 4.55053 6.7533L8.29974 15.8013C8.45326 16.1692 8.74603 16.4615 9.11419 16.6144C9.48235 16.7674 9.89604 16.7685 10.2651 16.6177L15.8284 14.3122C16.1982 14.1608 16.4927 13.8687 16.6472 13.5001C16.8017 13.1316 16.8036 12.7168 16.6523 12.3469V12.3469ZM5.95649 6.90448C5.54075 6.90448 5.2006 6.56433 5.2006 6.14859C5.2006 5.73285 5.54075 5.3927 5.95649 5.3927C6.37222 5.3927 6.71237 5.73285 6.71237 6.14859C6.71237 6.56433 6.37222 6.90448 5.95649 6.90448V6.90448ZM4.44471 15.2193C4.44471 16.0507 5.12501 16.731 5.95649 16.731H7.05252L4.44471 10.4269V15.2193Z" fill="url(#paint2_diamond_2079_62264)" fill-opacity="0.2"/>
<path d="M1.91248 15.1437L2.92537 15.567V8.74129L1.08856 13.1708C0.778643 13.9418 1.14903 14.8262 1.91248 15.1437V15.1437ZM16.6523 12.3469L12.9031 3.29888C12.789 3.02847 12.5992 2.79682 12.3564 2.63186C12.1137 2.46689 11.8284 2.37566 11.5349 2.36914C11.3384 2.36914 11.1343 2.39938 10.9378 2.48252L5.36689 4.78799C4.99911 4.94167 4.70695 5.23444 4.55404 5.60255C4.40114 5.97066 4.39987 6.38427 4.55053 6.7533L8.29974 15.8013C8.45326 16.1692 8.74603 16.4615 9.11419 16.6144C9.48235 16.7674 9.89604 16.7685 10.2651 16.6177L15.8284 14.3122C16.1982 14.1608 16.4927 13.8687 16.6472 13.5001C16.8017 13.1316 16.8036 12.7168 16.6523 12.3469V12.3469ZM5.95649 6.90448C5.54075 6.90448 5.2006 6.56433 5.2006 6.14859C5.2006 5.73285 5.54075 5.3927 5.95649 5.3927C6.37222 5.3927 6.71237 5.73285 6.71237 6.14859C6.71237 6.56433 6.37222 6.90448 5.95649 6.90448V6.90448ZM4.44471 15.2193C4.44471 16.0507 5.12501 16.731 5.95649 16.731H7.05252L4.44471 10.4269V15.2193Z" stroke="url(#paint3_linear_2079_62264)"/>
<path d="M1.91248 15.1437L2.92537 15.567V8.74129L1.08856 13.1708C0.778643 13.9418 1.14903 14.8262 1.91248 15.1437V15.1437ZM16.6523 12.3469L12.9031 3.29888C12.789 3.02847 12.5992 2.79682 12.3564 2.63186C12.1137 2.46689 11.8284 2.37566 11.5349 2.36914C11.3384 2.36914 11.1343 2.39938 10.9378 2.48252L5.36689 4.78799C4.99911 4.94167 4.70695 5.23444 4.55404 5.60255C4.40114 5.97066 4.39987 6.38427 4.55053 6.7533L8.29974 15.8013C8.45326 16.1692 8.74603 16.4615 9.11419 16.6144C9.48235 16.7674 9.89604 16.7685 10.2651 16.6177L15.8284 14.3122C16.1982 14.1608 16.4927 13.8687 16.6472 13.5001C16.8017 13.1316 16.8036 12.7168 16.6523 12.3469V12.3469ZM5.95649 6.90448C5.54075 6.90448 5.2006 6.56433 5.2006 6.14859C5.2006 5.73285 5.54075 5.3927 5.95649 5.3927C6.37222 5.3927 6.71237 5.73285 6.71237 6.14859C6.71237 6.56433 6.37222 6.90448 5.95649 6.90448V6.90448ZM4.44471 15.2193C4.44471 16.0507 5.12501 16.731 5.95649 16.731H7.05252L4.44471 10.4269V15.2193Z" stroke="url(#paint4_diamond_2079_62264)" stroke-opacity="0.2"/>
<defs>
<radialGradient id="paint0_diamond_2079_62264" cx="0" cy="0" r="1" gradientUnits="userSpaceOnUse" gradientTransform="translate(9.07067 9.3612) rotate(90) scale(9.07067)">
<stop offset="0.552083"/>
<stop offset="0.604167" stop-opacity="0"/>
</radialGradient>
<linearGradient id="paint1_linear_2079_62264" x1="-1.68819" y1="-3.37562" x2="10.7311" y2="-2.15277" gradientUnits="userSpaceOnUse">
<stop stop-color="#ECDDFF"/>
<stop offset="0.510417" stop-color="#EEE6FF"/>
<stop offset="0.927083" stop-color="#E9C6FF"/>
<stop offset="0.989583" stop-color="#E9C5FF"/>
</linearGradient>
<radialGradient id="paint2_diamond_2079_62264" cx="0" cy="0" r="1" gradientUnits="userSpaceOnUse" gradientTransform="translate(8.87173 9.55009) rotate(90) scale(7.18095 7.89273)">
<stop offset="0.552083"/>
<stop offset="0.604167" stop-opacity="0"/>
</radialGradient>
<linearGradient id="paint3_linear_2079_62264" x1="-1.68819" y1="-3.37562" x2="10.7311" y2="-2.15277" gradientUnits="userSpaceOnUse">
<stop stop-color="#ECDDFF"/>
<stop offset="0.510417" stop-color="#EEE6FF"/>
<stop offset="0.927083" stop-color="#E9C6FF"/>
<stop offset="0.989583" stop-color="#E9C5FF"/>
</linearGradient>
<radialGradient id="paint4_diamond_2079_62264" cx="0" cy="0" r="1" gradientUnits="userSpaceOnUse" gradientTransform="translate(8.87173 9.55009) rotate(90) scale(7.18095 7.89273)">
<stop offset="0.552083"/>
<stop offset="0.604167" stop-opacity="0"/>
</radialGradient>
</defs>
</svg>
