<svg width="20" height="20" viewBox="0 0 20 20" fill="none" xmlns="http://www.w3.org/2000/svg">
<path d="M9.70118 1.97021C5.25701 1.97021 1.6582 5.57708 1.6582 10.0212C1.6582 14.4654 5.25701 18.0723 9.70118 18.0723C14.1534 18.0723 17.7603 14.4654 17.7603 10.0212C17.7603 5.57708 14.1534 1.97021 9.70118 1.97021ZM13.1148 14.8519L9.70923 12.7989L6.30365 14.8519L7.20536 10.9793L4.20233 8.37884L8.16344 8.04069L9.70923 4.38552L11.255 8.03264L15.2161 8.37078L12.2131 10.9713L13.1148 14.8519Z" fill="url(#paint0_linear_2038_60184)"/>
<path d="M9.70118 1.97021C5.25701 1.97021 1.6582 5.57708 1.6582 10.0212C1.6582 14.4654 5.25701 18.0723 9.70118 18.0723C14.1534 18.0723 17.7603 14.4654 17.7603 10.0212C17.7603 5.57708 14.1534 1.97021 9.70118 1.97021ZM13.1148 14.8519L9.70923 12.7989L6.30365 14.8519L7.20536 10.9793L4.20233 8.37884L8.16344 8.04069L9.70923 4.38552L11.255 8.03264L15.2161 8.37078L12.2131 10.9713L13.1148 14.8519Z" fill="url(#paint1_diamond_2038_60184)" fill-opacity="0.2"/>
<path d="M9.70118 1.97021C5.25701 1.97021 1.6582 5.57708 1.6582 10.0212C1.6582 14.4654 5.25701 18.0723 9.70118 18.0723C14.1534 18.0723 17.7603 14.4654 17.7603 10.0212C17.7603 5.57708 14.1534 1.97021 9.70118 1.97021ZM13.1148 14.8519L9.70923 12.7989L6.30365 14.8519L7.20536 10.9793L4.20233 8.37884L8.16344 8.04069L9.70923 4.38552L11.255 8.03264L15.2161 8.37078L12.2131 10.9713L13.1148 14.8519Z" stroke="url(#paint2_linear_2038_60184)"/>
<path d="M9.70118 1.97021C5.25701 1.97021 1.6582 5.57708 1.6582 10.0212C1.6582 14.4654 5.25701 18.0723 9.70118 18.0723C14.1534 18.0723 17.7603 14.4654 17.7603 10.0212C17.7603 5.57708 14.1534 1.97021 9.70118 1.97021ZM13.1148 14.8519L9.70923 12.7989L6.30365 14.8519L7.20536 10.9793L4.20233 8.37884L8.16344 8.04069L9.70923 4.38552L11.255 8.03264L15.2161 8.37078L12.2131 10.9713L13.1148 14.8519Z" stroke="url(#paint3_diamond_2038_60184)" stroke-opacity="0.2"/>
<defs>
<linearGradient id="paint0_linear_2038_60184" x1="-1.06249" y1="-4.47061" x2="11.6269" y2="-3.33385" gradientUnits="userSpaceOnUse">
<stop stop-color="#ECDDFF"/>
<stop offset="0.510417" stop-color="#EEE6FF"/>
<stop offset="0.927083" stop-color="#E9C6FF"/>
<stop offset="0.989583" stop-color="#E9C5FF"/>
</linearGradient>
<radialGradient id="paint1_diamond_2038_60184" cx="0" cy="0" r="1" gradientUnits="userSpaceOnUse" gradientTransform="translate(9.70923 10.0212) rotate(90) scale(8.05103)">
<stop offset="0.552083"/>
<stop offset="0.604167" stop-opacity="0"/>
</radialGradient>
<linearGradient id="paint2_linear_2038_60184" x1="-1.06249" y1="-4.47061" x2="11.6269" y2="-3.33385" gradientUnits="userSpaceOnUse">
<stop stop-color="#ECDDFF"/>
<stop offset="0.510417" stop-color="#EEE6FF"/>
<stop offset="0.927083" stop-color="#E9C6FF"/>
<stop offset="0.989583" stop-color="#E9C5FF"/>
</linearGradient>
<radialGradient id="paint3_diamond_2038_60184" cx="0" cy="0" r="1" gradientUnits="userSpaceOnUse" gradientTransform="translate(9.70923 10.0212) rotate(90) scale(8.05103)">
<stop offset="0.552083"/>
<stop offset="0.604167" stop-opacity="0"/>
</radialGradient>
</defs>
</svg>
